<svg xmlns="http://www.w3.org/2000/svg" width="28" height="28" viewBox="0 0 28 28">
  <g id="ic_insta" transform="translate(-1316 -2435)">
    <rect id="area" width="28" height="28" transform="translate(1316 2435)" fill="rgba(255,255,255,0)"/>
    <g id="icon" transform="translate(1317.758 2436.758)">
      <path id="패스_3" data-name="패스 3" d="M77.9,354.57H67.481a7.109,7.109,0,0,0-7.109,7.109v10.413a7.107,7.107,0,0,0,7.109,7.109H77.9A7.106,7.106,0,0,0,85,372.092V361.679A7.108,7.108,0,0,0,77.9,354.57m4.841,17.707a4.722,4.722,0,0,1-4.72,4.72H67.358a4.723,4.723,0,0,1-4.719-4.72V361.619a4.721,4.721,0,0,1,4.719-4.719H78.016a4.72,4.72,0,0,1,4.72,4.719Z" transform="translate(-60.372 -354.57)" fill="#fff"/>
      <path id="패스_4" data-name="패스 4" d="M76.671,364.582a6.391,6.391,0,1,0,6.394,6.392,6.39,6.39,0,0,0-6.394-6.392m0,10.534a4.143,4.143,0,1,1,4.144-4.142,4.142,4.142,0,0,1-4.144,4.142" transform="translate(-64.356 -358.596)" fill="#fff"/>
      <path id="패스_5" data-name="패스 5" d="M91.015,361.684a1.489,1.489,0,1,0,1.489,1.489,1.49,1.49,0,0,0-1.489-1.489" transform="translate(-72.094 -357.43)" fill="#fff"/>
    </g>
  </g>
</svg>
