<svg xmlns="http://www.w3.org/2000/svg" width="36.584" height="36.584" viewBox="0 0 36.584 36.584">
  <g id="ic_thumb1" transform="translate(-1544.392 -656.392)">
      <rect id="area" width="32" height="32" transform="translate(1547 659)" fill="none"/>
      <path id="패스_28" data-name="패스 28" d="M25.88,4.663A7.226,7.226,0,0,0,19.9.5h-.056c-1.624,0-3.923.73-6.05,4.008C11.669,1.23,9.371.5,7.747.5H7.691A7.226,7.226,0,0,0,1.714,4.663a10.007,10.007,0,0,0,.354,10.153c2.145,3.3,5.893,6.234,11.461,8.959l.267.131.268-.131c5.568-2.724,9.317-5.655,11.461-8.959A10.007,10.007,0,0,0,25.88,4.663Zm-6.956,8.682a.557.557,0,0,1-.557.557h-2.9v2.9a.557.557,0,0,1-.557.557H12.684a.557.557,0,0,1-.557-.557V13.9h-2.9a.557.557,0,0,1-.557-.557V11.118a.557.557,0,0,1,.557-.557h2.9v-2.9a.557.557,0,0,1,.557-.557h2.227a.557.557,0,0,1,.557.557V10.1l.006.465h2.894a.557.557,0,0,1,.557.557Z" transform="translate(1549 663)" fill="none" stroke="#fff" stroke-linecap="round" stroke-linejoin="round" stroke-width="1.5"/>
    </g>
</svg>
