<svg xmlns="http://www.w3.org/2000/svg" xmlns:xlink="http://www.w3.org/1999/xlink" width="213" height="48" viewBox="0 0 213 48">
  <defs>
    <clipPath id="clip-path">
      <rect id="사각형_18" data-name="사각형 18" width="206.203" height="26.428" fill="#159770" stroke="#159770" stroke-width="1"/>
    </clipPath>
  </defs>
  <g id="img_logo_w" transform="translate(-857 -334)">
    <rect id="area" width="213" height="48" transform="translate(857 334)" fill="rgba(255,255,255,0)"/>
    <g id="그룹_31" data-name="그룹 31" transform="translate(857 344.931)">
      <g id="그룹_30" data-name="그룹 30" transform="translate(0 0)" clip-path="url(#clip-path)">
        <path id="패스_17" data-name="패스 17" d="M55.737,5.345H42.6V2.98h5.111V.263h2.949V2.98h5.082ZM49.2,15.6c-3.3,0-5.637-1.812-5.637-4.556,0-2.717,2.335-4.556,5.637-4.556,3.328,0,5.664,1.838,5.664,4.556,0,2.744-2.335,4.556-5.664,4.556m0-2.191c1.751,0,2.978-.933,2.978-2.364S50.948,8.673,49.2,8.673c-1.782,0-2.951.935-2.951,2.367S47.415,13.4,49.2,13.4m16,8.3c0,2.978-3.328,4.7-8.907,4.7s-8.936-1.721-8.936-4.7,3.358-4.673,8.936-4.673S65.2,18.719,65.2,21.7m-3.01,0c0-1.578-2.1-2.4-5.9-2.4-3.767,0-5.927.818-5.927,2.4s2.16,2.423,5.927,2.423c3.8,0,5.9-.847,5.9-2.423m-2.744-5.929h-2.8V.5h2.8v6.4H62.19V0h2.863V16.645H62.19V9.374H59.445Z" transform="translate(55.655 0)" fill="#fff"/>
        <path id="패스_18" data-name="패스 18" d="M77.228,12.979v2.452H53.313V12.979H63.737V10.261h-7.3V.276h2.978V2.962H71.153V.276h2.98v9.985H66.773v2.717ZM56,17.651H74.277v8.381H71.27V20.074H56Zm3.416-9.783H71.153V5.27H59.415Z" transform="translate(71.033 0.396)" fill="#fff"/>
        <path id="패스_19" data-name="패스 19" d="M72.27,6.862c0,4.76,1.665,9.082,5.491,11.069l-1.753,2.308A11.3,11.3,0,0,1,70.9,13.55c-.906,3.358-2.6,6.043-5.2,7.592L63.86,18.895c3.825-2.221,5.491-6.806,5.491-12.033V5.4H64.59V2.919H76.68V5.4H72.27ZM86.872,0V26.4H84.009V12.907h-2.89V25.172H78.287V.5h2.832v9.929h2.89V0Z" transform="translate(86.166 0)" fill="#fff"/>
        <path id="패스_20" data-name="패스 20" d="M89.447,13.7c-3.416.728-6.511.9-12.177.9H75.14V2.189H86.879V4.641H78.145v7.478a51.5,51.5,0,0,0,11.011-.847Zm-8.469,9.752H95.7V25.9H77.943V17.171h3.036ZM98.386,7.563v2.481h-3.74V19.1h-3.01V0h3.01V7.563Z" transform="translate(102.352 0)" fill="#fff"/>
        <path id="패스_21" data-name="패스 21" d="M0,11.292A10.553,10.553,0,0,1,10.89.428c5.368,0,9.076,3.111,10.164,7.468H18.28c-.882-2.93-3.552-4.953-7.338-4.953a7.988,7.988,0,0,0-8.22,8.35,8.018,8.018,0,0,0,8.22,8.35c3.89,0,6.793-2.281,7.546-5.239h2.774c-.906,4.331-4.873,7.753-10.371,7.753A10.553,10.553,0,0,1,0,11.292" transform="translate(5.582 1.978)" fill="#fff" stroke="#fff" stroke-width="1"/>
        <path id="패스_22" data-name="패스 22" d="M13.834.655l8.013,14.105L29.859.655h2.385V21.426H29.522V6.1L22.832,17.926H20.86L14.171,6.1V21.426H11.447V.655Z" transform="translate(18.884 2.242)" fill="#fff" stroke="#fff" stroke-width="1"/>
        <path id="패스_23" data-name="패스 23" d="M33.294,14.477v6.949H30.546V14.477L22.4.655h3.085l6.534,11.282L38.766.655H41.7Z" transform="translate(31.617 2.242)" fill="#fff" stroke="#fff" stroke-width="1"/>
        <path id="패스_24" data-name="패스 24" d="M39.132,12.169,35.4,16.318v5.109H32.676V.656H35.4v11.98L46.057.656h3.394L40.9,10.2l9.152,11.23H46.573Z" transform="translate(43.553 2.242)" fill="#fff" stroke="#fff" stroke-width="1"/>
      </g>
    </g>
  </g>
</svg>
